<?xml version="1.0" encoding="UTF-8" standalone="no"?>
<!-- Created with Inkscape (http://www.inkscape.org/) -->

<svg
   width="16"
   height="16"
   viewBox="0 0 16 16"
   version="1.1"
   id="svg1"
   inkscape:version="1.3 (0e150ed6c4, 2023-07-21)"
   sodipodi:docname="towers icon 16x16.svg"
   xmlns:inkscape="http://www.inkscape.org/namespaces/inkscape"
   xmlns:sodipodi="http://sodipodi.sourceforge.net/DTD/sodipodi-0.dtd"
   xmlns="http://www.w3.org/2000/svg"
   xmlns:svg="http://www.w3.org/2000/svg">
  <sodipodi:namedview
     id="namedview1"
     pagecolor="#ffffff"
     bordercolor="#000000"
     borderopacity="0.25"
     inkscape:showpageshadow="2"
     inkscape:pageopacity="0.0"
     inkscape:pagecheckerboard="0"
     inkscape:deskcolor="#d1d1d1"
     inkscape:document-units="px"
     inkscape:zoom="37.786019"
     inkscape:cx="9.3420798"
     inkscape:cy="9.3553122"
     inkscape:window-width="1920"
     inkscape:window-height="1111"
     inkscape:window-x="5591"
     inkscape:window-y="191"
     inkscape:window-maximized="1"
     inkscape:current-layer="layer1" />
  <defs
     id="defs1">
    <clipPath
       clipPathUnits="userSpaceOnUse"
       id="clipPath2">
      <path
         d="M 0,552.918 H 850.182 V 0 H 0 Z"
         transform="translate(-504.55642,-308.69051)"
         id="path2" />
    </clipPath>
    <clipPath
       clipPathUnits="userSpaceOnUse"
       id="clipPath4">
      <path
         d="M 0,552.918 H 850.182 V 0 H 0 Z"
         transform="translate(-375.37871,-343.19341)"
         id="path4" />
    </clipPath>
    <clipPath
       clipPathUnits="userSpaceOnUse"
       id="clipPath6">
      <path
         d="M 0,552.918 H 850.182 V 0 H 0 Z"
         transform="translate(-454.84841,-362.23001)"
         id="path6" />
    </clipPath>
    <clipPath
       clipPathUnits="userSpaceOnUse"
       id="clipPath8">
      <path
         d="M 0,552.918 H 850.182 V 0 H 0 Z"
         transform="translate(-402.32301,-388.88631)"
         id="path8" />
    </clipPath>
    <clipPath
       clipPathUnits="userSpaceOnUse"
       id="clipPath10">
      <path
         d="M 0,552.918 H 850.182 V 0 H 0 Z"
         transform="translate(-493.34941,-391.65091)"
         id="path10" />
    </clipPath>
  </defs>
  <g
     inkscape:label="Layer 1"
     inkscape:groupmode="layer"
     id="layer1">
    <g
       id="g48"
       transform="matrix(0.06743223,0,0,0.06743223,-30.218197,-8.5175402)">
      <path
         id="path1"
         d="m 0,0 c -1.783,4.709 -2.758,9.04 -2.985,13.25 -0.565,9.913 -0.104,19.927 1.365,29.753 0.174,1.143 0.699,4.255 0.699,4.255 0,0 -3.187,0.503 -4.333,0.663 -8.122,1.09 -16.308,1.646 -24.334,1.66 l -0.009,-6.173 c 7.128,-0.011 14.39,-0.469 21.605,-1.359 -0.213,-1.548 -0.391,-7.217 -0.553,-8.773 -7.102,0.792 -14.219,1.222 -21.209,1.227 L -29.76,28.33 c 6.817,-0.008 13.759,-0.427 20.684,-1.207 C -9.47,21.012 -9.494,19.001 -9.149,12.91 -8.888,8.065 -7.784,3.128 -5.771,-2.185 l 3.744,-9.885 h 6.602 z"
         style="fill:#000000;fill-opacity:1;fill-rule:nonzero;stroke:none"
         transform="matrix(1.3333333,0,0,-1.3333333,672.74187,325.63667)"
         clip-path="url(#clipPath2)" />
      <path
         id="path3"
         d="m 0,0 c -6.99,-0.005 -14.106,-0.435 -21.208,-1.227 -0.163,1.556 -0.34,7.226 -0.554,8.773 7.215,0.89 14.477,1.348 21.605,1.359 l -0.009,6.173 c -8.026,-0.014 -16.212,-0.57 -24.334,-1.66 -1.146,-0.16 -4.333,-0.663 -4.333,-0.663 0,0 0.525,-3.111 0.699,-4.255 1.469,-9.826 1.93,-19.84 1.365,-29.753 -0.225,-4.21 -1.202,-8.54 -2.985,-13.25 l -4.575,-12.07 h 6.602 l 3.744,9.885 c 2.014,5.313 3.117,10.251 3.379,15.095 0.345,6.091 0.32,8.102 -0.074,14.213 6.926,0.78 13.868,1.199 20.684,1.207 z"
         style="fill:#000000;fill-opacity:1;fill-rule:nonzero;stroke:none"
         transform="matrix(1.3333333,0,0,-1.3333333,500.50493,279.6328)"
         clip-path="url(#clipPath4)" />
      <path
         id="path5"
         d="m 0,0 c -19.892,2.32 -39.348,2.32 -59.239,0 -0.253,2.424 -0.536,8.964 -0.879,11.376 10.34,1.32 20.338,1.966 30.513,1.966 10.171,0 20.163,-0.646 30.487,-1.966 C 0.539,8.964 0.255,2.424 0,0 m 5.36,-28.131 c -0.757,13.328 -0.139,26.805 1.837,40.035 0.194,1.253 0.913,4.584 0.913,4.584 0,0 -3.771,0.623 -5.015,0.794 -10.995,1.472 -21.906,2.233 -32.7,2.233 -10.945,0 -21.35,-0.739 -32.499,-2.233 -2.454,-0.412 -5.015,-0.954 -5.015,-0.954 0,0 0.494,-3.165 0.682,-4.41 1.978,-13.221 2.598,-26.695 1.848,-40.054 -0.314,-5.679 -1.687,-11.748 -4.078,-18.038 l -7.36,-19.434 h 6.602 l 6.532,17.243 c 2.615,6.884 4.118,13.573 4.469,19.883 0.494,8.801 0.396,13.531 -0.259,22.335 19.518,2.283 38.609,2.283 58.129,0 -0.657,-8.813 -0.75,-13.539 -0.25,-22.327 0.34,-6.29 1.837,-12.98 4.454,-19.885 l 6.536,-17.249 h 6.602 l -7.364,19.434 c -2.423,6.4 -3.754,12.298 -4.064,18.043"
         style="fill:#000000;fill-opacity:1;fill-rule:nonzero;stroke:none"
         transform="matrix(1.3333333,0,0,-1.3333333,606.46453,254.25067)"
         clip-path="url(#clipPath6)" />
      <path
         id="path7"
         d="M 0,0 5.582,1.963 5.234,2.957 C 4.68,4.532 4.4,6.183 4.4,7.863 c 0,4.889 2.418,9.458 6.466,12.223 l 0.304,0.207 0.916,2.972 -0.134,0.342 c -0.74,1.891 -1.115,3.877 -1.115,5.899 0,8.918 7.255,16.173 16.174,16.173 5.449,0 10.497,-2.719 13.501,-7.275 l 0.339,-0.514 4.54,0.32 0.263,0.558 c 4.282,9.048 13.508,14.896 23.509,14.896 7.71,0 14.98,-3.397 19.941,-9.318 l 0.675,-0.807 4.536,3.798 -0.675,0.808 c -6.089,7.266 -15.01,11.433 -24.477,11.433 -10.676,0 -20.758,-5.465 -26.64,-14.35 -4.113,4.06 -9.691,6.365 -15.512,6.365 -12.18,0 -22.088,-9.908 -22.088,-22.087 0,-2.003 0.271,-3.99 0.806,-5.917 -4.613,-3.939 -7.243,-9.631 -7.243,-15.726 0,-2.348 0.392,-4.658 1.165,-6.867 z"
         style="fill:#000000;fill-opacity:1;fill-rule:nonzero;stroke:none"
         transform="matrix(1.3333333,0,0,-1.3333333,536.43067,218.70893)"
         clip-path="url(#clipPath8)" />
      <path
         id="path9"
         d="m 0,0 c -4.443,-3.206 -9.696,-4.901 -15.194,-4.901 -6.892,0 -13.386,2.671 -18.285,7.523 l -0.235,0.232 -2.792,0.489 -0.3,-0.14 C -39.805,1.807 -43.255,1.76 -46.277,3.074 l -0.965,0.421 -2.361,-5.43 0.967,-0.419 c 3.906,-1.696 8.397,-1.893 12.426,-0.562 5.815,-5.098 13.254,-7.899 21.016,-7.899 6.75,0 13.2,2.08 18.655,6.017 l 0.853,0.617 -3.461,4.796 z"
         style="fill:#000000;fill-opacity:1;fill-rule:nonzero;stroke:none"
         transform="matrix(1.3333333,0,0,-1.3333333,657.7992,215.0228)"
         clip-path="url(#clipPath10)" />
    </g>
  </g>
</svg>
